<?xml version="1.0" standalone="no"?>
<!DOCTYPE svg PUBLIC "-//W3C//DTD SVG 20010904//EN"
 "http://www.w3.org/TR/2001/REC-SVG-20010904/DTD/svg10.dtd">
<svg version="1.0" xmlns="http://www.w3.org/2000/svg"
 width="160.000000pt" height="160.000000pt" viewBox="0 0 160.000000 160.000000"
 preserveAspectRatio="xMidYMid meet">
<metadata>
Created by potrace 1.14, written by Peter Selinger 2001-2017
</metadata>
<g transform="translate(0.000000,160.000000) scale(0.100000,-0.100000)"
fill="#000000" stroke="none">
<path d="M677 1470 c-67 -53 -25 -160 63 -160 10 0 32 12 49 26 24 20 31 34
31 62 -1 78 -83 119 -143 72z"/>
<path d="M978 1401 c-28 -25 -33 -36 -33 -75 0 -58 33 -95 93 -103 37 -5 45
-2 77 30 48 48 49 95 1 143 -45 45 -92 47 -138 5z"/>
<path d="M380 1360 c-28 -28 -27 -84 2 -104 34 -24 73 -20 97 10 27 35 26 59
-4 89 -29 30 -68 32 -95 5z"/>
<path d="M1194 1196 c-26 -26 -34 -42 -34 -71 0 -52 53 -105 105 -105 52 0
105 53 105 105 0 52 -53 105 -105 105 -29 0 -45 -8 -71 -34z"/>
<path d="M644 983 l-91 -208 -222 -3 c-213 -2 -221 -3 -221 -22 0 -19 7 -20
211 -20 165 0 210 -3 206 -12 -3 -7 -26 -57 -51 -111 l-45 -97 37 0 37 0 23
73 c13 39 31 88 41 107 l16 35 138 3 137 3 21 -47 c11 -26 30 -76 42 -111 l22
-63 52 0 51 0 -52 118 c-29 64 -95 217 -146 340 -51 122 -98 222 -104 222 -6
0 -52 -93 -102 -207z m140 -65 c31 -76 56 -140 56 -143 0 -3 -52 -5 -115 -5
-71 0 -115 4 -115 10 0 12 112 282 115 278 2 -2 28 -65 59 -140z"/>
<path d="M176 1114 c-9 -8 -16 -22 -16 -30 0 -55 66 -75 96 -29 15 23 15 27 0
50 -19 29 -56 33 -80 9z"/>
<path d="M1279 907 c-48 -32 -68 -91 -48 -143 40 -105 183 -113 234 -14 28 55
12 117 -41 159 -37 29 -101 28 -145 -2z"/>
<path d="M1189 561 c-24 -24 -29 -38 -29 -76 0 -38 5 -52 29 -76 24 -23 38
-29 74 -29 37 0 51 6 76 31 25 25 31 39 31 76 0 36 -6 50 -29 74 -24 24 -38
29 -76 29 -38 0 -52 -5 -76 -29z"/>
<path d="M170 561 c-14 -27 -13 -47 6 -65 24 -24 61 -20 80 9 15 23 15 27 0
50 -21 31 -70 35 -86 6z"/>
<path d="M974 356 c-26 -26 -34 -42 -34 -71 0 -29 8 -45 34 -71 38 -38 77 -44
125 -20 67 35 67 147 0 182 -48 24 -87 18 -125 -20z"/>
<path d="M382 347 c-34 -36 -25 -84 19 -108 29 -15 75 6 87 39 24 71 -56 122
-106 69z"/>
<path d="M1232 318 c-14 -14 -16 -54 -4 -62 5 -3 7 8 4 23 -2 16 1 32 7 35 7
4 11 -1 11 -12 0 -11 7 -22 15 -26 22 -8 19 31 -3 43 -13 7 -23 6 -30 -1z"/>
<path d="M1290 314 c16 -26 8 -52 -22 -64 -16 -6 -18 -9 -6 -9 40 -2 63 55 31
80 -15 13 -15 12 -3 -7z"/>
<path d="M695 289 c-11 -6 -26 -19 -32 -27 -14 -17 -17 -69 -7 -97 8 -19 55
-45 84 -45 33 0 80 53 80 89 0 59 -76 108 -125 80z"/>
</g>
</svg>
